<svg width="32" height="32" viewBox="0 0 32 32" fill="none" xmlns="http://www.w3.org/2000/svg">
<path d="M16 2.66663C8.66669 2.66663 2.66669 8.66663 2.66669 16C2.66669 23.3333 8.66669 29.3333 16 29.3333C23.3334 29.3333 29.3334 23.3333 29.3334 16C29.3334 8.66663 23.3334 2.66663 16 2.66663ZM16 26.6666C10.1334 26.6666 5.33335 21.8666 5.33335 16C5.33335 10.1333 10.1334 5.33329 16 5.33329C21.8667 5.33329 26.6667 10.1333 26.6667 16C26.6667 21.8666 21.8667 26.6666 16 26.6666Z" fill="#FD9222"/>
<path d="M17.7334 14.6667H14.2667C13.6 14.6667 13.0667 14.1333 13.0667 13.4667C13.0667 12.8 13.6 12.2667 14.2667 12.2667H19.2C20 12.2667 20.5334 11.7333 20.5334 10.9333C20.5334 10.1333 20 9.59998 19.2 9.59998H17.3334V8.39998C17.3334 7.59998 16.8 7.06665 16 7.06665C15.2 7.06665 14.6667 7.59998 14.6667 8.39998V9.59998H14.2667C12.1334 9.59998 10.4 11.3333 10.4 13.4667C10.4 15.6 12.1334 17.3333 14.2667 17.3333H17.6C18.2667 17.3333 18.8 17.8666 18.8 18.5333C18.8 19.2 18.2667 19.7333 17.6 19.7333H12.6667C11.8667 19.7333 11.3334 20.2667 11.3334 21.0667C11.3334 21.8667 11.8667 22.4 12.6667 22.4H14.6667V23.6C14.6667 24.4 15.2 24.9333 16 24.9333C16.8 24.9333 17.3334 24.4 17.3334 23.6V22.4H17.7334C19.8667 22.4 21.6 20.6667 21.6 18.5333C21.6 16.4 19.8667 14.6667 17.7334 14.6667Z" fill="#FD9222"/>
</svg>
