<svg aria-hidden="true" style="position: absolute; width: 0; height: 0; overflow: hidden;" version="1.1" xmlns="http://www.w3.org/2000/svg" xmlns:xlink="http://www.w3.org/1999/xlink">
<defs>
<symbol id="icon-burger" viewBox="0 0 47 32">
<path d="M0.892 0.115c-0.236 0.106-0.436 0.252-0.599 0.432l-0.001 0.001-0.291 0.324v2.483l0.332 0.332c0.636 0.636-1.54 0.583 23.293 0.56l22.106-0.019 0.407-0.225 0.407-0.227v-3.375l-0.806-0.401-22.269 0.003c-18.902 0.003-22.316 0.020-22.579 0.112zM1.068 13.575c-0.359 0.109-0.742 0.384-0.909 0.653-0.141 0.23-0.159 0.384-0.159 1.412 0 1.004 0.020 1.187 0.151 1.401 0.217 0.355 0.735 0.628 1.364 0.72 0.742 0.108 43.081 0.108 43.821 0 0.295-0.042 0.679-0.156 0.854-0.252l0.316-0.175v-3.408l-0.698-0.39-22.263-0.013c-12.246-0.007-22.361 0.016-22.477 0.051zM1.219 27.081c-0.394 0.078-0.73 0.283-0.972 0.571l-0.002 0.003-0.244 0.279v2.497l0.332 0.332c0.636 0.634-1.54 0.582 23.293 0.56 20.793-0.019 22.122-0.028 22.378-0.154 0.573-0.285 0.543-0.17 0.543-2.022v-1.673l-0.892-0.438-22.071-0.012c-12.748-0.007-22.193 0.016-22.364 0.057z"></path>
</symbol>
<symbol id="icon-bar" viewBox="0 0 31 32">
<path d="M13.045 0.456l8.306 8.316 0.088-0.088c0.174-0.17 0.407-0.267 0.65-0.27s0.478 0.089 0.656 0.255l0.963 0.963c0.337 0.337 0.348 0.85 0.092 1.207l-0.004 0.008-0.158 0.212 6.797 6.797c0.607 0.607 0.607 1.578 0 2.185l-10.406 10.406c-0.607 0.607-1.578 0.607-2.185 0l-4.907-4.907c-0.081 0.103-0.184 0.187-0.3 0.247s-0.244 0.095-0.375 0.103c-0.131 0.007-0.262-0.013-0.384-0.060s-0.234-0.119-0.326-0.212l-2.869-2.869c-0.17-0.174-0.267-0.407-0.27-0.65s0.089-0.478 0.255-0.656l0.007-0.008 0.085-0.084-8.306-8.306c-0.607-0.607-0.607-1.578 0-2.185l10.405-10.405c0.607-0.607 1.578-0.607 2.185 0v0.001zM20.308 9.813l-1.938-1.937c-0.061-0.063-0.134-0.113-0.214-0.147s-0.167-0.052-0.255-0.052c-0.087 0-0.174 0.018-0.255 0.052s-0.154 0.084-0.214 0.147l-3.95 3.95c-0.063 0.062-0.112 0.136-0.146 0.217s-0.051 0.169-0.051 0.257 0.017 0.176 0.051 0.257c0.034 0.081 0.084 0.155 0.146 0.217l1.93 1.93 0.673-0.673-1.727-1.727 3.542-3.553 1.731 1.737 0.676-0.676zM14.707 15.41l-1.935-1.935c-0.061-0.063-0.134-0.113-0.214-0.147s-0.167-0.052-0.255-0.052c-0.088 0-0.174 0.018-0.255 0.052s-0.153 0.084-0.214 0.147l-3.961 3.961c-0.265 0.254-0.265 0.673 0 0.938l1.933 1.933 0.68-0.68-1.732-1.726 3.553-3.542 1.726 1.725 0.675-0.674zM7.528 6.834l3.95 3.95c0.265 0.265 0.684 0.265 0.938-0.011l3.95-3.95c0.063-0.060 0.113-0.132 0.147-0.211s0.052-0.165 0.052-0.252h0.011c0-0.166-0.066-0.342-0.199-0.474l-3.95-3.95c-0.062-0.063-0.136-0.113-0.217-0.147s-0.169-0.051-0.257-0.051c-0.088 0-0.176 0.018-0.257 0.051s-0.155 0.084-0.217 0.147l-3.95 3.961c-0.265 0.254-0.265 0.673 0 0.938zM1.933 12.428l3.95 3.95c0.265 0.265 0.684 0.265 0.938 0l3.95-3.95c0.064-0.061 0.115-0.135 0.149-0.216s0.051-0.17 0.050-0.258h0.011c0-0.177-0.066-0.342-0.199-0.474l-3.95-3.95c-0.061-0.063-0.134-0.113-0.214-0.147s-0.167-0.052-0.255-0.052c-0.087 0-0.174 0.018-0.255 0.052s-0.153 0.084-0.214 0.147l-3.961 3.961c-0.265 0.254-0.265 0.673 0 0.938zM9.583 22.088l2.606 2.607 10.633-14.389-0.723-0.723-12.516 12.504z"></path>
<path d="M13.045 0.456l8.306 8.316 0.088-0.088c0.174-0.17 0.407-0.267 0.65-0.27s0.478 0.089 0.656 0.255l0.963 0.963c0.337 0.337 0.348 0.85 0.092 1.207l-0.004 0.008-0.158 0.212 6.797 6.797c0.607 0.607 0.607 1.578 0 2.185l-10.406 10.406c-0.607 0.607-1.578 0.607-2.185 0l-4.907-4.907c-0.081 0.103-0.184 0.187-0.3 0.247s-0.244 0.095-0.375 0.103c-0.131 0.007-0.262-0.013-0.384-0.060s-0.234-0.119-0.326-0.212l-2.869-2.869c-0.17-0.174-0.267-0.407-0.27-0.65s0.089-0.478 0.255-0.656l0.007-0.008 0.085-0.084-8.306-8.306c-0.607-0.607-0.607-1.578 0-2.185l10.405-10.405c0.607-0.607 1.578-0.607 2.185 0v0.001zM20.308 9.813l-1.938-1.937c-0.061-0.063-0.134-0.113-0.214-0.147s-0.167-0.052-0.255-0.052c-0.087 0-0.174 0.018-0.255 0.052s-0.154 0.084-0.214 0.147l-3.95 3.95c-0.063 0.062-0.112 0.136-0.146 0.217s-0.051 0.169-0.051 0.257 0.017 0.176 0.051 0.257c0.034 0.081 0.084 0.155 0.146 0.217l1.93 1.93 0.673-0.673-1.727-1.727 3.542-3.553 1.731 1.737 0.676-0.676zM14.707 15.41l-1.935-1.935c-0.061-0.063-0.134-0.113-0.214-0.147s-0.167-0.052-0.255-0.052c-0.088 0-0.174 0.018-0.255 0.052s-0.153 0.084-0.214 0.147l-3.961 3.961c-0.265 0.254-0.265 0.673 0 0.938l1.933 1.933 0.68-0.68-1.732-1.726 3.553-3.542 1.726 1.725 0.675-0.674zM7.528 6.834l3.95 3.95c0.265 0.265 0.684 0.265 0.938-0.011l3.95-3.95c0.063-0.060 0.113-0.132 0.147-0.211s0.052-0.165 0.052-0.252h0.011c0-0.166-0.066-0.342-0.199-0.474l-3.95-3.95c-0.062-0.063-0.136-0.113-0.217-0.147s-0.169-0.051-0.257-0.051c-0.088 0-0.176 0.018-0.257 0.051s-0.155 0.084-0.217 0.147l-3.95 3.961c-0.265 0.254-0.265 0.673 0 0.938zM1.933 12.428l3.95 3.95c0.265 0.265 0.684 0.265 0.938 0l3.95-3.95c0.064-0.061 0.115-0.135 0.149-0.216s0.051-0.17 0.050-0.258h0.011c0-0.177-0.066-0.342-0.199-0.474l-3.95-3.95c-0.061-0.063-0.134-0.113-0.214-0.147s-0.167-0.052-0.255-0.052c-0.087 0-0.174 0.018-0.255 0.052s-0.153 0.084-0.214 0.147l-3.961 3.961c-0.265 0.254-0.265 0.673 0 0.938zM9.583 22.088l2.606 2.607 10.633-14.389-0.723-0.723-12.516 12.504z"></path>
</symbol>
<symbol id="icon-burger-hover" viewBox="0 0 45 32">
<path stroke-linejoin="round" stroke-linecap="round" stroke-miterlimit="4" stroke-width="4" d="M3.2 16h38.4M3.2 3.2h38.4M3.2 28.8h38.4"></path>
</symbol>
<symbol id="icon-chocolate" viewBox="0 0 32 32">
<path d="M3.944 20.076l10.777-17.424 0.64-0.674 8.236 5.491 0.056 3.314 2.010 3.28-8.88 14.077-12.839-8.063z"></path>
<path stroke-linejoin="round" stroke-linecap="round" stroke-miterlimit="4" stroke-width="2.6667" d="M21.635 23.88l-14.185-8.864M11.361 8.599l14.185 8.864M10.63 25.864l11.736-19.25M27.176 14.789c-3.040-1.899-4.234-3.384-2.278-6.592l-9.626-6.015-11.736 19.25 14.186 8.864 9.454-15.507z"></path>
</symbol>
<symbol id="icon-close" viewBox="0 0 32 32">
<path stroke-linejoin="round" stroke-linecap="round" stroke-miterlimit="4" stroke-width="4.8" d="M29.333 2.667l-26.667 26.667M2.667 2.667l26.667 26.667"></path>
</symbol>
<symbol id="icon-coin" viewBox="0 0 32 32">
<path d="M16 0.762c-8.381 0-15.238 6.857-15.238 15.238s6.857 15.238 15.238 15.238c8.381 0 15.238-6.857 15.238-15.238s-6.857-15.238-15.238-15.238zM16 28.191c-6.705 0-12.19-5.486-12.19-12.19s5.486-12.191 12.19-12.191c6.705 0 12.19 5.486 12.19 12.191s-5.486 12.19-12.191 12.19z"></path>
<path d="M17.981 14.476h-3.962c-0.762 0-1.371-0.61-1.371-1.371s0.61-1.371 1.371-1.371h5.638c0.914 0 1.524-0.61 1.524-1.524s-0.61-1.524-1.524-1.524h-2.133v-1.371c0-0.914-0.61-1.524-1.524-1.524s-1.524 0.61-1.524 1.524v1.371h-0.457c-2.438 0-4.419 1.981-4.419 4.419s1.981 4.419 4.419 4.419h3.809c0.762 0 1.371 0.61 1.371 1.371s-0.61 1.371-1.371 1.371h-5.638c-0.914 0-1.524 0.61-1.524 1.524s0.61 1.524 1.524 1.524h2.286v1.371c0 0.914 0.61 1.524 1.524 1.524s1.524-0.61 1.524-1.524v-1.371h0.457c2.438 0 4.419-1.981 4.419-4.419s-1.981-4.419-4.419-4.419z"></path>
</symbol>
<symbol id="icon-home" viewBox="0 0 86 32">
<path d="M16.996 6.4h2.8v19.6h-2.8v-19.6zM5.74 26h-2.8v-19.6h2.8v19.6zM17.248 17.264h-11.788v-2.436h11.788v2.436zM31.067 26.168c-1.493 0-2.819-0.327-3.976-0.98s-2.072-1.549-2.744-2.688c-0.672-1.157-1.008-2.464-1.008-3.92 0-1.475 0.336-2.781 1.008-3.92s1.587-2.025 2.744-2.66c1.157-0.653 2.483-0.98 3.976-0.98 1.475 0 2.791 0.327 3.948 0.98 1.176 0.635 2.091 1.521 2.744 2.66 0.672 1.12 1.008 2.427 1.008 3.92 0 1.475-0.336 2.781-1.008 3.92-0.653 1.139-1.568 2.035-2.744 2.688-1.157 0.653-2.473 0.98-3.948 0.98zM31.067 23.816c0.952 0 1.801-0.215 2.548-0.644 0.765-0.429 1.363-1.036 1.792-1.82 0.429-0.803 0.644-1.727 0.644-2.772 0-1.064-0.215-1.979-0.644-2.744-0.429-0.784-1.027-1.391-1.792-1.82-0.747-0.429-1.596-0.644-2.548-0.644s-1.801 0.215-2.548 0.644c-0.747 0.429-1.344 1.036-1.792 1.82-0.448 0.765-0.672 1.68-0.672 2.744 0 1.045 0.224 1.969 0.672 2.772 0.448 0.784 1.045 1.391 1.792 1.82s1.596 0.644 2.548 0.644zM60.488 11.020c1.195 0 2.249 0.233 3.164 0.7s1.624 1.176 2.128 2.128c0.523 0.952 0.784 2.156 0.784 3.612v8.54h-2.688v-8.232c0-1.437-0.336-2.52-1.008-3.248s-1.615-1.092-2.828-1.092c-0.896 0-1.68 0.187-2.352 0.56s-1.195 0.924-1.568 1.652c-0.355 0.728-0.532 1.633-0.532 2.716v7.644h-2.688v-8.232c0-1.437-0.336-2.52-1.008-3.248-0.653-0.728-1.596-1.092-2.828-1.092-0.877 0-1.652 0.187-2.324 0.56s-1.195 0.924-1.568 1.652c-0.373 0.728-0.56 1.633-0.56 2.716v7.644h-2.688v-14.84h2.576v3.948l-0.42-1.008c0.467-0.971 1.185-1.727 2.156-2.268s2.1-0.812 3.388-0.812c1.419 0 2.641 0.355 3.668 1.064 1.027 0.691 1.699 1.745 2.016 3.164l-1.092-0.448c0.448-1.139 1.232-2.053 2.352-2.744s2.427-1.036 3.92-1.036zM77.558 26.168c-1.587 0-2.987-0.327-4.2-0.98-1.195-0.653-2.128-1.549-2.8-2.688-0.653-1.139-0.98-2.445-0.98-3.92s0.317-2.781 0.952-3.92c0.653-1.139 1.54-2.025 2.66-2.66 1.139-0.653 2.417-0.98 3.836-0.98 1.437 0 2.707 0.317 3.808 0.952s1.96 1.531 2.576 2.688c0.635 1.139 0.952 2.473 0.952 4.004 0 0.112-0.009 0.243-0.028 0.392 0 0.149-0.009 0.289-0.028 0.42h-12.628v-1.932h11.228l-1.092 0.672c0.019-0.952-0.177-1.801-0.588-2.548s-0.98-1.325-1.708-1.736c-0.709-0.429-1.54-0.644-2.492-0.644-0.933 0-1.764 0.215-2.492 0.644-0.728 0.411-1.297 0.999-1.708 1.764-0.411 0.747-0.616 1.605-0.616 2.576v0.448c0 0.989 0.224 1.876 0.672 2.66 0.467 0.765 1.111 1.363 1.932 1.792s1.764 0.644 2.828 0.644c0.877 0 1.671-0.149 2.38-0.448 0.728-0.299 1.363-0.747 1.904-1.344l1.484 1.736c-0.672 0.784-1.512 1.381-2.52 1.792-0.989 0.411-2.1 0.616-3.332 0.616z"></path>
</symbol>
<symbol id="icon-instagram" viewBox="0 0 32 32">
<path stroke-linejoin="round" stroke-linecap="round" stroke-miterlimit="4" stroke-width="2.1818" d="M22.667 2.667h-13.333c-3.682 0-6.667 2.985-6.667 6.667v13.333c0 3.682 2.985 6.667 6.667 6.667h13.333c3.682 0 6.667-2.985 6.667-6.667v-13.333c0-3.682-2.985-6.667-6.667-6.667z"></path>
<path stroke-linejoin="round" stroke-linecap="round" stroke-miterlimit="4" stroke-width="2.1818" d="M21.333 15.16c0.165 1.11-0.025 2.243-0.542 3.239s-1.334 1.803-2.336 2.308c-1.002 0.504-2.138 0.68-3.245 0.502s-2.131-0.701-2.924-1.494-1.316-1.816-1.494-2.924c-0.178-1.107-0.003-2.243 0.502-3.245s1.312-1.82 2.308-2.336c0.996-0.517 2.129-0.706 3.239-0.542 1.132 0.168 2.18 0.695 2.989 1.504s1.337 1.857 1.504 2.989z"></path>
<path stroke-linejoin="round" stroke-linecap="round" stroke-miterlimit="4" stroke-width="2.1818" d="M23.333 8.667h0.015"></path>
</symbol>
<symbol id="icon-scroll" viewBox="0 0 56 32">
<path d="M30.605 21.134c-0.341 0.344-0.746 0.616-1.193 0.803s-0.926 0.282-1.41 0.282-0.963-0.096-1.41-0.282c-0.447-0.186-0.852-0.459-1.193-0.803l-16.793-16.83c-0.341-0.344-0.746-0.616-1.193-0.803s-0.926-0.282-1.41-0.282-0.963 0.096-1.41 0.282c-0.447 0.186-0.852 0.459-1.193 0.803-0.683 0.687-1.066 1.616-1.066 2.585s0.383 1.898 1.066 2.585l16.83 16.83c2.063 2.060 4.858 3.217 7.773 3.217s5.711-1.157 7.773-3.217l16.83-16.83c0.677-0.683 1.059-1.605 1.063-2.567 0.003-0.483-0.090-0.961-0.272-1.408s-0.451-0.853-0.791-1.196c-0.341-0.344-0.746-0.616-1.194-0.803s-0.926-0.282-1.41-0.282-0.963 0.096-1.41 0.282c-0.447 0.186-0.852 0.459-1.193 0.803l-16.793 16.83z"></path>
</symbol>
<symbol id="icon-spoon" viewBox="0 0 34 32">
<path d="M16.482 12.913c-0.835-1.013-1.255-2.257-1.255-3.501 0-4.612 5.527-9.218 11.053-9.218 3.051 0 5.526 2.476 5.526 5.528 0 5.528-4.605 11.055-9.222 11.055-1.243 0-2.487-0.42-3.5-1.255l-13.609 13.612c-0.72 0.72-1.888 0.72-2.608 0s-0.72-1.889 0-2.608l13.615-13.612z"></path>
<path stroke-linejoin="miter" stroke-linecap="butt" stroke-miterlimit="4" stroke-width="1.0667" d="M16.859 13.29l0.343-0.342-0.308-0.374c-0.754-0.915-1.133-2.038-1.133-3.162 0-2.096 1.265-4.263 3.262-5.929 1.991-1.66 4.636-2.756 7.257-2.756 2.756 0 4.993 2.237 4.993 4.994 0 2.622-1.096 5.268-2.756 7.259-1.666 1.998-3.835 3.263-5.933 3.263-1.124 0-2.246-0.38-3.161-1.133l-0.374-0.308-13.951 13.954c-0.511 0.511-1.342 0.511-1.853 0s-0.511-1.343-0-1.854c0 0 0-0 0-0l13.615-13.612z"></path>
</symbol>
<symbol id="icon-twitter" viewBox="0 0 36 32">
<path stroke-linejoin="round" stroke-linecap="round" stroke-miterlimit="4" stroke-width="2.6667" d="M34.074 2.667c-1.419 1.001-2.989 1.766-4.652 2.267-0.892-1.026-2.078-1.753-3.397-2.083s-2.707-0.247-3.978 0.238c-1.27 0.485-2.361 1.348-3.125 2.473s-1.163 2.457-1.145 3.817v1.481c-2.604 0.068-5.183-0.51-7.51-1.681s-4.327-3.492-5.824-5.623c0 0-5.926 13.926 7.407 19.852-3.051 2.071-6.686 3.11-10.37 2.963 13.333 7.407 29.63 0 29.63-17.037-0.001-0.413-0.041-0.824-0.118-1.23 1.512-1.491 2.579-3.374 3.081-5.437z"></path>
</symbol>
<symbol id="icon-flag" viewBox="0 0 40 32">
<path fill="#ffd700" style="fill: var(--color1, #ffd700)" d="M40.209 0.495h-39.902v29.695h39.902v-29.695z"></path>
<path fill="#0057b7" style="fill: var(--color2, #0057b7)" d="M0.307 0.495h39.902v14.847h-39.902v-14.847z"></path>
</symbol>
</defs>
</svg>
