<svg width="16" height="16" viewBox="0 0 16 16" fill="none" xmlns="http://www.w3.org/2000/svg">
<path d="M8.4733 8.93359C8.41132 8.99607 8.33759 9.04567 8.25635 9.07952C8.17511 9.11336 8.08797 9.13079 7.99996 9.13079C7.91196 9.13079 7.82482 9.11336 7.74358 9.07952C7.66234 9.04567 7.58861 8.99607 7.52663 8.93359L4.47329 5.87359C4.41132 5.8111 4.33758 5.76151 4.25634 5.72766C4.1751 5.69381 4.08797 5.67639 3.99996 5.67639C3.91195 5.67639 3.82481 5.69381 3.74357 5.72766C3.66234 5.76151 3.5886 5.8111 3.52663 5.87359C3.40246 5.9985 3.33276 6.16746 3.33276 6.34359C3.33276 6.51971 3.40246 6.68868 3.52663 6.81359L6.58663 9.87359C6.96163 10.2481 7.46996 10.4585 7.99996 10.4585C8.52997 10.4585 9.0383 10.2481 9.4133 9.87359L12.4733 6.81359C12.5965 6.68941 12.6659 6.52182 12.6666 6.34692C12.6671 6.25918 12.6503 6.17221 12.6172 6.09098C12.584 6.00976 12.5351 5.93588 12.4733 5.87359C12.4113 5.8111 12.3376 5.76151 12.2564 5.72766C12.1751 5.69381 12.088 5.67639 12 5.67639C11.912 5.67639 11.8248 5.69381 11.7436 5.72766C11.6623 5.76151 11.5886 5.8111 11.5266 5.87359L8.4733 8.93359Z" fill="#FD9222"/>
</svg>
