<!-- Generated by IcoMoon.io -->
<svg version="1.1" xmlns="http://www.w3.org/2000/svg" width="32" height="32" viewBox="0 0 32 32">
<title>galochka</title>
<path fill="#fd9222" d="M16.947 17.866c-0.241 0.244-0.576 0.394-0.946 0.394s-0.705-0.151-0.946-0.394l-0-0-6.109-6.119c-0.244-0.264-0.592-0.428-0.979-0.428-0.737 0-1.334 0.597-1.334 1.334 0 0.384 0.162 0.729 0.421 0.973l0.001 0.001 6.119 6.121c0.724 0.723 1.723 1.17 2.827 1.17s2.103-0.447 2.827-1.17l6.119-6.121c0.227-0.239 0.367-0.562 0.367-0.918 0-0.737-0.597-1.334-1.334-1.334-0.359 0-0.686 0.142-0.926 0.373l0-0-6.108 6.119z"></path>
</svg>
