<!-- Generated by IcoMoon.io -->
<svg version="1.1" xmlns="http://www.w3.org/2000/svg" width="32" height="32" viewBox="0 0 32 32">
<title>instagram</title>
<path fill="none" stroke-linejoin="round" stroke-linecap="round" stroke-miterlimit="4" stroke-width="2.1818" stroke="#000" d="M22.668 2.666h-13.334c-3.682 0-6.666 2.985-6.666 6.666 0 0.001 0 0.001 0 0.002v-0 13.332c0 0 0 0.001 0 0.001 0 3.682 2.985 6.666 6.666 6.666h13.332c0 0 0.001 0 0.001 0 3.682 0 6.666-2.985 6.666-6.666 0-0 0-0.001 0-0.002v0-13.332c0-0 0-0.001 0-0.001 0-3.682-2.985-6.666-6.666-6.666-0 0-0.001 0-0.002 0h0z"></path>
<path fill="none" stroke-linejoin="round" stroke-linecap="round" stroke-miterlimit="4" stroke-width="2.1818" stroke="#000" d="M21.334 15.159c0.037 0.235 0.058 0.506 0.058 0.783 0 2.945-2.387 5.333-5.333 5.333-2.669 0-4.88-1.961-5.271-4.52l-0.004-0.030c-0.037-0.235-0.058-0.506-0.058-0.782 0-2.945 2.387-5.333 5.333-5.333 2.669 0 4.88 1.961 5.271 4.521l0.004 0.030z"></path>
<path fill="none" stroke-linejoin="round" stroke-linecap="round" stroke-miterlimit="4" stroke-width="2.1818" stroke="#000" d="M21.334 15.159c0.037 0.235 0.058 0.506 0.058 0.783 0 2.945-2.387 5.333-5.333 5.333-2.669 0-4.88-1.961-5.271-4.52l-0.004-0.030c-0.037-0.235-0.058-0.506-0.058-0.782 0-2.945 2.387-5.333 5.333-5.333 2.669 0 4.88 1.961 5.271 4.521l0.004 0.030zM23.332 8.666h0.015M23.332 8.666h0.015"></path>
</svg>
