<svg aria-hidden="true" style="position: absolute; width: 0; height: 0; overflow: hidden;" version="1.1" xmlns="http://www.w3.org/2000/svg" xmlns:xlink="http://www.w3.org/1999/xlink">
<defs>
<symbol id="frame-opt" viewBox="0 0 41 32">
<path fill="#ffd700" style="fill: var(--color1, #ffd700)" d="M40.748 1.353h-40.438v30.094h40.438v-30.094z"></path>
<path fill="#0057b7" style="fill: var(--color2, #0057b7)" d="M0.311 1.353h40.437v15.046h-40.438v-15.046z"></path>
</symbol>
<symbol id="mastercard-opt" viewBox="0 0 51 32">
<path fill="#ed0006" style="fill: var(--color3, #ed0006)" d="M25.602 26.935c-2.529 2.187-5.85 3.519-9.481 3.519-0.005 0-0.011 0-0.016 0h0.001c-8.087 0-14.641-6.592-14.641-14.727 0-8.133 6.554-14.727 14.641-14.727 3.623 0 6.94 1.325 9.497 3.519 2.529-2.187 5.85-3.519 9.481-3.519 0.005 0 0.011 0 0.016 0h-0.001c8.087 0 14.641 6.592 14.641 14.727 0 8.133-6.554 14.727-14.641 14.727-0.005 0-0.010 0-0.015 0-3.632 0-6.952-1.332-9.5-3.534l0.018 0.016z"></path>
<path fill="#f9a000" style="fill: var(--color4, #f9a000)" d="M25.602 26.935c3.157-2.718 5.144-6.719 5.144-11.185 0-0.008 0-0.017-0-0.025v0.001c0-0.007 0-0.016 0-0.024 0-4.465-1.987-8.467-5.125-11.168l-0.019-0.016c2.529-2.187 5.85-3.519 9.481-3.519 0.005 0 0.011 0 0.016 0h-0.001c8.087 0 14.641 6.592 14.641 14.727 0 8.133-6.554 14.727-14.641 14.727-0.005 0-0.010 0-0.015 0-3.632 0-6.952-1.332-9.5-3.534l0.018 0.016z"></path>
<path fill="#ff5e00" style="fill: var(--color5, #ff5e00)" d="M25.602 26.935c3.157-2.718 5.144-6.719 5.144-11.185 0-0.008 0-0.017-0-0.025v0.001c0-0.007 0-0.016 0-0.024 0-4.465-1.987-8.467-5.125-11.168l-0.019-0.016c-3.157 2.718-5.144 6.719-5.144 11.185 0 0.008 0 0.017 0 0.025v-0.001c0 0.007-0 0.016-0 0.025 0 4.465 1.987 8.467 5.125 11.168l0.019 0.016z"></path>
</symbol>
<symbol id="play" viewBox="0 0 32 32">
<path d="M10.88 16.339c0 4.181 0.018 7.611 0.040 7.623 0.035 0.019 14.427-7.521 14.484-7.588 0.020-0.023-14.295-7.559-14.465-7.615-0.044-0.015-0.060 1.992-0.060 7.581z"></path>
</symbol>
<symbol id="galochka" viewBox="0 0 32 32">
<path d="M16.947 17.866c-0.241 0.244-0.576 0.394-0.946 0.394s-0.705-0.151-0.946-0.394l-0-0-6.109-6.119c-0.244-0.264-0.592-0.428-0.979-0.428-0.737 0-1.334 0.597-1.334 1.334 0 0.384 0.162 0.729 0.421 0.973l0.001 0.001 6.119 6.121c0.724 0.723 1.723 1.17 2.827 1.17s2.103-0.447 2.827-1.17l6.119-6.121c0.227-0.239 0.367-0.562 0.367-0.918 0-0.737-0.597-1.334-1.334-1.334-0.359 0-0.686 0.142-0.926 0.373l0-0-6.108 6.119z"></path>
</symbol>
<symbol id="galochka-2" viewBox="0 0 32 32">
<path d="M16.946 17.868c-0.242 0.244-0.577 0.394-0.947 0.394s-0.705-0.151-0.947-0.394l-0-0-6.106-6.12c-0.242-0.244-0.577-0.394-0.947-0.394-0.737 0-1.334 0.597-1.334 1.334 0 0.367 0.148 0.699 0.387 0.94l6.12 6.12c0.724 0.723 1.723 1.17 2.827 1.17s2.103-0.447 2.827-1.17l6.12-6.12c0.239-0.241 0.387-0.573 0.387-0.94 0-0.737-0.597-1.334-1.334-1.334-0.37 0-0.705 0.151-0.947 0.394l-0 0-6.106 6.12z"></path>
</symbol>
<symbol id="instagram" viewBox="0 0 32 32">
<path stroke-linejoin="round" stroke-linecap="round" stroke-miterlimit="4" stroke-width="2.1818" d="M22.668 2.666h-13.334c-3.682 0-6.666 2.985-6.666 6.666 0 0.001 0 0.001 0 0.002v-0 13.332c0 0 0 0.001 0 0.001 0 3.682 2.985 6.666 6.666 6.666h13.332c0 0 0.001 0 0.001 0 3.682 0 6.666-2.985 6.666-6.666 0-0 0-0.001 0-0.002v0-13.332c0-0 0-0.001 0-0.001 0-3.682-2.985-6.666-6.666-6.666-0 0-0.001 0-0.002 0h0z"></path>
<path stroke-linejoin="round" stroke-linecap="round" stroke-miterlimit="4" stroke-width="2.1818" d="M21.334 15.159c0.037 0.235 0.058 0.506 0.058 0.783 0 2.945-2.387 5.333-5.333 5.333-2.669 0-4.88-1.961-5.271-4.52l-0.004-0.030c-0.037-0.235-0.058-0.506-0.058-0.782 0-2.945 2.387-5.333 5.333-5.333 2.669 0 4.88 1.961 5.271 4.521l0.004 0.030z"></path>
<path stroke-linejoin="round" stroke-linecap="round" stroke-miterlimit="4" stroke-width="2.1818" d="M21.334 15.159c0.037 0.235 0.058 0.506 0.058 0.783 0 2.945-2.387 5.333-5.333 5.333-2.669 0-4.88-1.961-5.271-4.52l-0.004-0.030c-0.037-0.235-0.058-0.506-0.058-0.782 0-2.945 2.387-5.333 5.333-5.333 2.669 0 4.88 1.961 5.271 4.521l0.004 0.030zM23.332 8.666h0.015M23.332 8.666h0.015"></path>
</symbol>
<symbol id="krestik" viewBox="0 0 32 32">
<path stroke-linejoin="round" stroke-linecap="round" stroke-miterlimit="4" stroke-width="2.9091" d="M24 8l-16 16"></path>
<path stroke-linejoin="round" stroke-linecap="round" stroke-miterlimit="4" stroke-width="2.9091" d="M8 8l16 16"></path>
</symbol>
<symbol id="krestik-2" viewBox="0 0 32 32">
<path stroke-linejoin="round" stroke-linecap="round" stroke-miterlimit="4" stroke-width="3" d="M24 8l-16 16"></path>
<path stroke-linejoin="round" stroke-linecap="round" stroke-miterlimit="4" stroke-width="3" d="M8 8l16 16"></path>
</symbol>
<symbol id="menu" viewBox="0 0 32 32">
<path stroke-linejoin="round" stroke-linecap="round" stroke-miterlimit="4" stroke-width="2.5" d="M4 16h24M4 8h24M4 24h24"></path>
</symbol>
<symbol id="menu-2" viewBox="0 0 32 32">
<path stroke-linejoin="round" stroke-linecap="round" stroke-miterlimit="4" stroke-width="2.2857" d="M4 16h24M4 8h24M4 24h24"></path>
</symbol>
<symbol id="twitter" viewBox="0 0 32 32">
<path stroke-linejoin="round" stroke-linecap="round" stroke-miterlimit="4" stroke-width="2.4" d="M30.667 4c-1.2 0.856-2.591 1.552-4.084 2.013l-0.103 0.027c-1.101-1.262-2.712-2.054-4.508-2.054-3.299 0-5.973 2.674-5.973 5.973 0 0.029 0 0.057 0.001 0.086l-0-0.004v1.333c-0.11 0.003-0.24 0.005-0.37 0.005-2.33 0-4.529-0.561-6.469-1.554l0.080 0.037c-2.094-1.054-3.894-3.142-5.242-5.061 0 0-5.333 12.533 6.667 17.867-2.442 1.677-5.462 2.678-8.715 2.678-0.218 0-0.435-0.005-0.65-0.013l0.031 0.001c12 6.667 26.667 0 26.667-15.333 0-0.371-0.037-0.742-0.107-1.107 1.323-1.305 2.294-2.963 2.759-4.822l0.015-0.071z"></path>
</symbol>
<symbol id="chocolate-bar" viewBox="0 0 32 32">
<path d="M13.822 2.413l7.527 7.536 0.080-0.080c0.154-0.151 0.366-0.244 0.599-0.244 0.227 0 0.433 0.088 0.586 0.232l-0-0 0.873 0.873c0.305 0.305 0.315 0.77 0.083 1.094l-0.004 0.007-0.143 0.192 6.16 6.16c0.55 0.55 0.55 1.43 0 1.98l-9.43 9.43c-0.55 0.55-1.43 0.55-1.98 0l-4.447-4.447c-0.155 0.195-0.393 0.319-0.659 0.319-0.233 0-0.444-0.095-0.596-0.248l-2.6-2.6c-0.151-0.154-0.244-0.366-0.244-0.599 0-0.227 0.088-0.433 0.232-0.586l-0 0 0.006-0.007 0.077-0.076-7.527-7.527c-0.55-0.55-0.55-1.43 0-1.98l9.43-9.43c0.55-0.55 1.43-0.55 1.98 0v0.001zM20.404 10.893l-1.756-1.755c-0.108-0.111-0.258-0.18-0.425-0.18s-0.317 0.069-0.425 0.18l-3.58 3.58c-0.111 0.11-0.179 0.262-0.179 0.43s0.068 0.32 0.179 0.43l1.749 1.749 0.61-0.61-1.565-1.565 3.21-3.22 1.569 1.574 0.613-0.613zM15.328 15.965l-1.754-1.754c-0.108-0.111-0.258-0.18-0.425-0.18s-0.317 0.069-0.425 0.18l-3.59 3.59c-0.24 0.23-0.24 0.61 0 0.85l1.752 1.752 0.616-0.616-1.57-1.564 3.22-3.21 1.564 1.563 0.612-0.611zM8.822 8.193l3.58 3.58c0.24 0.24 0.62 0.24 0.85-0.010l3.58-3.58c0.111-0.106 0.18-0.255 0.18-0.42 0-0 0-0 0-0v0h0.010c0-0.15-0.060-0.31-0.18-0.43l-3.58-3.58c-0.11-0.111-0.262-0.18-0.43-0.18s-0.32 0.069-0.43 0.18l-0 0-3.58 3.59c-0.24 0.23-0.24 0.61 0 0.85zM3.752 13.263l3.58 3.58c0.24 0.24 0.62 0.24 0.85 0l3.58-3.58c0.111-0.106 0.18-0.255 0.18-0.42 0-0.004-0-0.007-0-0.010v0.001h0.010c0-0.16-0.060-0.31-0.18-0.43l-3.58-3.58c-0.108-0.111-0.258-0.18-0.425-0.18s-0.317 0.069-0.425 0.18l-3.59 3.59c-0.24 0.23-0.24 0.61 0 0.85zM10.685 22.017l2.362 2.363 9.636-13.040-0.655-0.655-11.343 11.332z"></path>
<path d="M13.822 2.413l7.527 7.536 0.080-0.080c0.154-0.151 0.366-0.244 0.599-0.244 0.227 0 0.433 0.088 0.586 0.232l-0-0 0.873 0.873c0.305 0.305 0.315 0.77 0.083 1.094l-0.004 0.007-0.143 0.192 6.16 6.16c0.55 0.55 0.55 1.43 0 1.98l-9.43 9.43c-0.55 0.55-1.43 0.55-1.98 0l-4.447-4.447c-0.155 0.195-0.393 0.319-0.659 0.319-0.233 0-0.444-0.095-0.596-0.248l-2.6-2.6c-0.151-0.154-0.244-0.366-0.244-0.599 0-0.227 0.088-0.433 0.232-0.586l-0 0 0.006-0.007 0.077-0.076-7.527-7.527c-0.55-0.55-0.55-1.43 0-1.98l9.43-9.43c0.55-0.55 1.43-0.55 1.98 0v0.001zM20.404 10.893l-1.756-1.755c-0.108-0.111-0.258-0.18-0.425-0.18s-0.317 0.069-0.425 0.18l-3.58 3.58c-0.111 0.11-0.179 0.262-0.179 0.43s0.068 0.32 0.179 0.43l1.749 1.749 0.61-0.61-1.565-1.565 3.21-3.22 1.569 1.574 0.613-0.613zM15.328 15.965l-1.754-1.754c-0.108-0.111-0.258-0.18-0.425-0.18s-0.317 0.069-0.425 0.18l-3.59 3.59c-0.24 0.23-0.24 0.61 0 0.85l1.752 1.752 0.616-0.616-1.57-1.564 3.22-3.21 1.564 1.563 0.612-0.611zM8.822 8.193l3.58 3.58c0.24 0.24 0.62 0.24 0.85-0.010l3.58-3.58c0.111-0.106 0.18-0.255 0.18-0.42 0-0 0-0 0-0v0h0.010c0-0.15-0.060-0.31-0.18-0.43l-3.58-3.58c-0.11-0.111-0.262-0.18-0.43-0.18s-0.32 0.069-0.43 0.18l-0 0-3.58 3.59c-0.24 0.23-0.24 0.61 0 0.85zM3.752 13.263l3.58 3.58c0.24 0.24 0.62 0.24 0.85 0l3.58-3.58c0.111-0.106 0.18-0.255 0.18-0.42 0-0.004-0-0.007-0-0.010v0.001h0.010c0-0.16-0.060-0.31-0.18-0.43l-3.58-3.58c-0.108-0.111-0.258-0.18-0.425-0.18s-0.317 0.069-0.425 0.18l-3.59 3.59c-0.24 0.23-0.24 0.61 0 0.85zM10.685 22.017l2.362 2.363 9.636-13.040-0.655-0.655-11.343 11.332z"></path>
</symbol>
<symbol id="chocolate-desktop" viewBox="0 0 32 32">
<path d="M3.944 20.076l10.777-17.424 0.64-0.675 8.235 5.491 0.057 3.315 2.009 3.28-8.88 14.076-12.839-8.063z"></path>
<path stroke-linejoin="round" stroke-linecap="round" stroke-miterlimit="4" stroke-width="2.6667" d="M21.635 23.88l-14.187-8.864M11.361 8.599l14.185 8.864M10.629 25.864l11.736-19.249M27.176 14.788c-3.040-1.899-4.233-3.383-2.277-6.591l-9.627-6.016-11.735 19.251 14.187 8.864 9.453-15.507z"></path>
</symbol>
<symbol id="chocolate-mobile" viewBox="0 0 32 32">
<path d="M3.944 20.076l10.776-17.425 0.64-0.674 8.236 5.489 0.056 3.314 2.011 3.279-8.881 14.077-12.84-8.062z"></path>
<path stroke-linejoin="round" stroke-linecap="round" stroke-miterlimit="4" stroke-width="2.7429" d="M21.635 23.88l-14.187-8.864M11.362 8.599l14.185 8.864M10.63 25.864l11.736-19.25M27.177 14.789c-3.040-1.897-4.235-3.383-2.278-6.59l-9.626-6.014-11.738 19.249 14.187 8.864 9.454-15.508z"></path>
</symbol>
<symbol id="coin" viewBox="0 0 32 32">
<path d="M16 0.762c-8.381 0-15.238 6.857-15.238 15.238s6.857 15.238 15.238 15.238 15.238-6.857 15.238-15.238-6.857-15.238-15.238-15.238zM16 28.191c-6.705 0-12.191-5.486-12.191-12.191s5.486-12.191 12.191-12.191c6.704 0 12.19 5.486 12.19 12.191s-5.486 12.191-12.19 12.191z"></path>
<path d="M17.981 14.477h-3.961c-0.762 0-1.371-0.61-1.371-1.371 0-0.762 0.609-1.371 1.371-1.371h5.638c0.914 0 1.523-0.61 1.523-1.525s-0.609-1.523-1.523-1.523h-2.134v-1.371c0-0.914-0.609-1.523-1.523-1.523s-1.523 0.609-1.523 1.523v1.371h-0.457c-2.44 0.002-4.417 1.979-4.419 4.419v0c0.003 2.439 1.98 4.416 4.419 4.418h3.809c0.762 0 1.371 0.61 1.371 1.371 0 0.762-0.609 1.371-1.371 1.371h-5.638c-0.914 0-1.525 0.61-1.525 1.525s0.61 1.523 1.525 1.523h2.286v1.371c0 0.914 0.609 1.523 1.523 1.523s1.523-0.609 1.523-1.523v-1.371h0.457c2.44-0.002 4.417-1.979 4.419-4.419v-0c-0.003-2.439-1.98-4.416-4.419-4.418h-0z"></path>
</symbol>
<symbol id="galochka-header" viewBox="0 0 32 32">
<path d="M16.947 17.866c-0.241 0.244-0.576 0.394-0.946 0.394s-0.705-0.151-0.946-0.394l-0-0-6.109-6.119c-0.244-0.264-0.592-0.428-0.979-0.428-0.737 0-1.334 0.597-1.334 1.334 0 0.384 0.162 0.729 0.421 0.973l0.001 0.001 6.119 6.121c0.724 0.723 1.723 1.17 2.827 1.17s2.103-0.447 2.827-1.17l6.119-6.121c0.227-0.239 0.367-0.562 0.367-0.918 0-0.737-0.597-1.334-1.334-1.334-0.359 0-0.686 0.142-0.926 0.373l0-0-6.108 6.119z"></path>
</symbol>
<symbol id="galochka-header-2" viewBox="0 0 32 32">
<path d="M16.947 17.866c-0.241 0.244-0.576 0.394-0.946 0.394s-0.705-0.151-0.946-0.394l-0-0-6.109-6.119c-0.244-0.264-0.592-0.428-0.979-0.428-0.737 0-1.334 0.597-1.334 1.334 0 0.384 0.162 0.729 0.421 0.973l0.001 0.001 6.119 6.121c0.724 0.723 1.723 1.17 2.827 1.17s2.103-0.447 2.827-1.17l6.119-6.121c0.227-0.239 0.367-0.562 0.367-0.918 0-0.737-0.597-1.334-1.334-1.334-0.359 0-0.686 0.142-0.926 0.373l0-0-6.108 6.119z"></path>
</symbol>
<symbol id="galochka-scroll" viewBox="0 0 32 32">
<path d="M16.947 17.866c-0.241 0.244-0.576 0.394-0.946 0.394s-0.705-0.151-0.946-0.394l-0-0-6.109-6.119c-0.244-0.264-0.592-0.428-0.979-0.428-0.737 0-1.334 0.597-1.334 1.334 0 0.384 0.162 0.729 0.421 0.973l0.001 0.001 6.119 6.121c0.724 0.723 1.723 1.17 2.827 1.17s2.103-0.447 2.827-1.17l6.119-6.121c0.227-0.239 0.367-0.562 0.367-0.918 0-0.737-0.597-1.334-1.334-1.334-0.359 0-0.686 0.142-0.926 0.373l0-0-6.108 6.119z"></path>
</symbol>
<symbol id="galochka-scroll-2" viewBox="0 0 32 32">
<path d="M16.947 17.866c-0.241 0.244-0.576 0.394-0.946 0.394s-0.705-0.151-0.946-0.394l-0-0-6.109-6.119c-0.244-0.264-0.592-0.428-0.979-0.428-0.737 0-1.334 0.597-1.334 1.334 0 0.384 0.162 0.729 0.421 0.973l0.001 0.001 6.119 6.121c0.724 0.723 1.723 1.17 2.827 1.17s2.103-0.447 2.827-1.17l6.119-6.121c0.227-0.239 0.367-0.562 0.367-0.918 0-0.737-0.597-1.334-1.334-1.334-0.359 0-0.686 0.142-0.926 0.373l0-0-6.108 6.119z"></path>
</symbol>
<symbol id="instagram1" viewBox="0 0 32 32">
<path stroke-linejoin="round" stroke-linecap="round" stroke-miterlimit="4" stroke-width="2.6667" d="M22.667 2.667h-13.333c-3.682 0-6.667 2.985-6.667 6.667v0 13.333c0 3.682 2.985 6.667 6.667 6.667v0h13.333c3.682 0 6.667-2.985 6.667-6.667v0-13.333c0-3.682-2.985-6.667-6.667-6.667v0z"></path>
<path stroke-linejoin="round" stroke-linecap="round" stroke-miterlimit="4" stroke-width="2.6667" d="M21.333 15.16c0.042 0.251 0.066 0.54 0.066 0.834 0 2.946-2.388 5.333-5.333 5.333-2.688 0-4.911-1.988-5.28-4.574l-0.003-0.028c-0.032-0.22-0.050-0.473-0.050-0.731 0-2.946 2.388-5.333 5.333-5.333 2.651 0 4.85 1.934 5.264 4.468l0.004 0.031z"></path>
<path stroke-linejoin="round" stroke-linecap="round" stroke-miterlimit="4" stroke-width="2.6667" d="M21.333 15.16c0.042 0.251 0.066 0.54 0.066 0.834 0 2.946-2.388 5.333-5.333 5.333-2.688 0-4.911-1.988-5.28-4.574l-0.003-0.028c-0.032-0.22-0.050-0.473-0.050-0.731 0-2.946 2.388-5.333 5.333-5.333 2.651 0 4.85 1.934 5.264 4.468l0.004 0.031zM23.333 8.667h0.013M23.333 8.667h0.013"></path>
</symbol>
<symbol id="sliders-oval" viewBox="0 0 32 32">
<path d="M24.571 8.571h-17.143c-4.103 0-7.429 3.326-7.429 7.429s3.326 7.429 7.429 7.429v0h17.143c4.103 0 7.429-3.326 7.429-7.429s-3.326-7.429-7.429-7.429v0z"></path>
</symbol>
<symbol id="sliders-rond" viewBox="0 0 32 32">
<path d="M16 32c8.837 0 16-7.163 16-16s-7.163-16-16-16v0c-8.837 0-16 7.163-16 16s7.163 16 16 16v0z"></path>
</symbol>
<symbol id="spoon" viewBox="0 0 32 32">
<path d="M15.451 14.106c-0.732-0.884-1.176-2.029-1.176-3.278 0-0.001 0-0.003 0-0.004v0c0-4.324 5.18-8.642 10.362-8.642 2.861 0.001 5.18 2.321 5.181 5.182v0c0 5.182-4.318 10.364-8.646 10.364-0.001 0-0.002 0-0.003 0-1.249 0-2.395-0.444-3.287-1.184l0.009 0.007-12.759 12.761c-0.307 0.283-0.719 0.457-1.171 0.457-0.955 0-1.73-0.775-1.73-1.73 0-0.453 0.174-0.865 0.459-1.173l-0.001 0.001 12.762-12.761z"></path>
</symbol>
<symbol id="twitter1" viewBox="0 0 32 32">
<path stroke-linejoin="round" stroke-linecap="round" stroke-miterlimit="4" stroke-width="2.6667" d="M30.667 4c-1.2 0.856-2.591 1.552-4.084 2.013l-0.103 0.027c-1.101-1.261-2.712-2.053-4.507-2.053-3.299 0-5.973 2.674-5.973 5.973 0 0.028 0 0.056 0.001 0.084l-0-0.004v1.333c-0.109 0.003-0.238 0.005-0.367 0.005-2.331 0-4.53-0.561-6.471-1.555l0.080 0.037c-2.093-1.053-4.56-3.563-5.908-5.48 0 0-4.667 12.953 7.333 18.287-2.442 1.677-5.462 2.679-8.716 2.679-0.217 0-0.433-0.004-0.648-0.013l0.031 0.001c12 6.667 26.667 0 26.667-15.333 0-0.372-0.037-0.741-0.107-1.107 1.323-1.305 2.293-2.963 2.758-4.822l0.015-0.071z"></path>
</symbol>
<symbol id="icon-chocobar" viewBox="0 0 32 32">
<path fill="#000" style="fill: var(--color1, #000)" d="M13.822 2.413l7.527 7.536 0.080-0.080c0.158-0.154 0.369-0.242 0.589-0.244s0.434 0.080 0.595 0.231l0.873 0.873c0.305 0.305 0.315 0.77 0.083 1.094l-0.004 0.007-0.143 0.192 6.16 6.16c0.55 0.55 0.55 1.43 0 1.98l-9.43 9.43c-0.55 0.55-1.43 0.55-1.98 0l-4.447-4.447c-0.074 0.093-0.167 0.169-0.272 0.224s-0.221 0.086-0.34 0.093c-0.119 0.007-0.237-0.012-0.348-0.054s-0.212-0.108-0.296-0.192l-2.6-2.6c-0.154-0.158-0.242-0.369-0.244-0.589s0.080-0.434 0.231-0.595l0.006-0.007 0.077-0.076-7.527-7.527c-0.55-0.55-0.55-1.43 0-1.98l9.43-9.43c0.55-0.55 1.43-0.55 1.98 0v0.001zM20.404 10.893l-1.756-1.755c-0.055-0.057-0.121-0.102-0.194-0.133s-0.151-0.047-0.231-0.047c-0.079 0-0.158 0.016-0.231 0.047s-0.139 0.076-0.194 0.133l-3.58 3.58c-0.057 0.056-0.102 0.123-0.132 0.197s-0.047 0.153-0.047 0.233 0.016 0.159 0.047 0.233c0.031 0.074 0.076 0.141 0.132 0.197l1.749 1.749 0.61-0.61-1.565-1.565 3.21-3.22 1.569 1.574 0.613-0.613zM15.328 15.965l-1.754-1.754c-0.055-0.057-0.121-0.102-0.194-0.133s-0.152-0.047-0.231-0.047c-0.079 0-0.158 0.016-0.231 0.047s-0.139 0.076-0.194 0.133l-3.59 3.59c-0.24 0.23-0.24 0.61 0 0.85l1.752 1.752 0.616-0.616-1.57-1.564 3.22-3.21 1.564 1.563 0.612-0.611zM8.822 8.193l3.58 3.58c0.24 0.24 0.62 0.24 0.85-0.010l3.58-3.58c0.057-0.054 0.102-0.119 0.133-0.192s0.047-0.15 0.047-0.228h0.010c0-0.15-0.060-0.31-0.18-0.43l-3.58-3.58c-0.056-0.057-0.123-0.102-0.197-0.133s-0.153-0.047-0.233-0.047c-0.080 0-0.159 0.016-0.233 0.047s-0.141 0.076-0.197 0.133l-3.58 3.59c-0.24 0.23-0.24 0.61 0 0.85zM3.752 13.263l3.58 3.58c0.24 0.24 0.62 0.24 0.85 0l3.58-3.58c0.058-0.055 0.104-0.122 0.135-0.196s0.046-0.154 0.045-0.234h0.010c0-0.16-0.060-0.31-0.18-0.43l-3.58-3.58c-0.055-0.057-0.121-0.102-0.194-0.133s-0.151-0.047-0.231-0.047c-0.079 0-0.158 0.016-0.231 0.047s-0.139 0.076-0.194 0.133l-3.59 3.59c-0.24 0.23-0.24 0.61 0 0.85zM10.685 22.017l2.362 2.363 9.636-13.040-0.655-0.655-11.343 11.332z"></path>
<path fill="#fd9222" style="fill: var(--color2, #fd9222)" d="M13.822 2.413l7.527 7.536 0.080-0.080c0.158-0.154 0.369-0.242 0.589-0.244s0.434 0.080 0.595 0.231l0.873 0.873c0.305 0.305 0.315 0.77 0.083 1.094l-0.004 0.007-0.143 0.192 6.16 6.16c0.55 0.55 0.55 1.43 0 1.98l-9.43 9.43c-0.55 0.55-1.43 0.55-1.98 0l-4.447-4.447c-0.074 0.093-0.167 0.169-0.272 0.224s-0.221 0.086-0.34 0.093c-0.119 0.007-0.237-0.012-0.348-0.054s-0.212-0.108-0.296-0.192l-2.6-2.6c-0.154-0.158-0.242-0.369-0.244-0.589s0.080-0.434 0.231-0.595l0.006-0.007 0.077-0.076-7.527-7.527c-0.55-0.55-0.55-1.43 0-1.98l9.43-9.43c0.55-0.55 1.43-0.55 1.98 0v0.001zM20.404 10.893l-1.756-1.755c-0.055-0.057-0.121-0.102-0.194-0.133s-0.151-0.047-0.231-0.047c-0.079 0-0.158 0.016-0.231 0.047s-0.139 0.076-0.194 0.133l-3.58 3.58c-0.057 0.056-0.102 0.123-0.132 0.197s-0.047 0.153-0.047 0.233 0.016 0.159 0.047 0.233c0.031 0.074 0.076 0.141 0.132 0.197l1.749 1.749 0.61-0.61-1.565-1.565 3.21-3.22 1.569 1.574 0.613-0.613zM15.328 15.965l-1.754-1.754c-0.055-0.057-0.121-0.102-0.194-0.133s-0.152-0.047-0.231-0.047c-0.079 0-0.158 0.016-0.231 0.047s-0.139 0.076-0.194 0.133l-3.59 3.59c-0.24 0.23-0.24 0.61 0 0.85l1.752 1.752 0.616-0.616-1.57-1.564 3.22-3.21 1.564 1.563 0.612-0.611zM8.822 8.193l3.58 3.58c0.24 0.24 0.62 0.24 0.85-0.010l3.58-3.58c0.057-0.054 0.102-0.119 0.133-0.192s0.047-0.15 0.047-0.228h0.010c0-0.15-0.060-0.31-0.18-0.43l-3.58-3.58c-0.056-0.057-0.123-0.102-0.197-0.133s-0.153-0.047-0.233-0.047c-0.080 0-0.159 0.016-0.233 0.047s-0.141 0.076-0.197 0.133l-3.58 3.59c-0.24 0.23-0.24 0.61 0 0.85zM3.752 13.263l3.58 3.58c0.24 0.24 0.62 0.24 0.85 0l3.58-3.58c0.058-0.055 0.104-0.122 0.135-0.196s0.046-0.154 0.045-0.234h0.010c0-0.16-0.060-0.31-0.18-0.43l-3.58-3.58c-0.055-0.057-0.121-0.102-0.194-0.133s-0.151-0.047-0.231-0.047c-0.079 0-0.158 0.016-0.231 0.047s-0.139 0.076-0.194 0.133l-3.59 3.59c-0.24 0.23-0.24 0.61 0 0.85zM10.685 22.017l2.362 2.363 9.636-13.040-0.655-0.655-11.343 11.332z"></path>
</symbol>
<symbol id="icon-coin" viewBox="0 0 32 32">
<path fill="#fd9222" style="fill: var(--color1, #fd9222)" d="M16 2.667c-7.333 0-13.333 6-13.333 13.333s6 13.333 13.333 13.333c7.333 0 13.333-6 13.333-13.333s-6-13.333-13.333-13.333zM16 26.667c-5.867 0-10.667-4.8-10.667-10.667s4.8-10.667 10.667-10.667c5.867 0 10.667 4.8 10.667 10.667s-4.8 10.667-10.667 10.667z"></path>
<path fill="#fd9222" style="fill: var(--color1, #fd9222)" d="M17.733 14.667h-3.467c-0.667 0-1.2-0.533-1.2-1.2s0.533-1.2 1.2-1.2h4.933c0.8 0 1.333-0.533 1.333-1.333s-0.533-1.333-1.333-1.333h-1.867v-1.2c0-0.8-0.533-1.333-1.333-1.333s-1.333 0.533-1.333 1.333v1.2h-0.4c-2.133 0-3.867 1.733-3.867 3.867s1.733 3.867 3.867 3.867h3.333c0.667 0 1.2 0.533 1.2 1.2s-0.533 1.2-1.2 1.2h-4.933c-0.8 0-1.333 0.533-1.333 1.333s0.533 1.333 1.333 1.333h2v1.2c0 0.8 0.533 1.333 1.333 1.333s1.333-0.533 1.333-1.333v-1.2h0.4c2.133 0 3.867-1.733 3.867-3.867s-1.733-3.867-3.867-3.867z"></path>
</symbol>
<symbol id="icon-spoon" viewBox="0 0 32 32">
<path fill="#fd9222" style="fill: var(--color1, #fd9222)" d="M15.451 14.106c-0.783-0.95-1.177-2.116-1.177-3.282 0-4.324 5.181-8.642 10.362-8.642 2.86 0 5.181 2.321 5.181 5.182 0 5.182-4.318 10.364-8.646 10.364-1.166 0-2.331-0.394-3.281-1.177l-12.758 12.761c-0.675 0.675-1.77 0.675-2.445 0s-0.675-1.771 0-2.445l12.764-12.761z"></path>
</symbol>
<symbol id="icon-x" viewBox="0 0 32 32">
<path stroke-linejoin="round" stroke-linecap="round" stroke-miterlimit="4" stroke-width="3" d="M24 8l-16 16"></path>
<path stroke-linejoin="round" stroke-linecap="round" stroke-miterlimit="4" stroke-width="3" d="M8 8l16 16"></path>
</symbol>
<svg xmlns="http://www.w3.org/2000/svg" aria-hidden="true" style="position:absolute;width:0;height:0;overflow:hidden"><defs><symbol id="icon-burger" viewBox="0 0 47 32"><path d="M.892.115a1.789 1.789 0 0 0-.599.432L.292.548.001.872v2.483l.332.332c.636.636-1.54.583 23.293.56l22.106-.019.407-.225.407-.227V.401L45.74 0 23.471.003C4.569.006 1.155.023.892.115zm.176 13.46c-.359.109-.742.384-.909.653-.141.23-.159.384-.159 1.412 0 1.004.02 1.187.151 1.401.217.355.735.628 1.364.72.742.108 43.081.108 43.821 0 .295-.042.679-.156.854-.252l.316-.175v-3.408l-.698-.39-22.263-.013c-12.246-.007-22.361.016-22.477.051zm.151 13.506a1.69 1.69 0 0 0-.972.571l-.002.003-.244.279v2.497l.332.332c.636.634-1.54.582 23.293.56 20.793-.019 22.122-.028 22.378-.154.573-.285.543-.17.543-2.022v-1.673l-.892-.438-22.071-.012c-12.748-.007-22.193.016-22.364.057z"/></symbol><symbol id="icon-bar" viewBox="0 0 31 32"><path d="m13.045.456 8.306 8.316.088-.088a.948.948 0 0 1 1.306-.015l.963.963c.337.337.348.85.092 1.207l-.004.008-.158.212 6.797 6.797a1.539 1.539 0 0 1 0 2.185L20.029 30.447a1.539 1.539 0 0 1-2.185 0l-4.907-4.907a.918.918 0 0 1-.675.35.93.93 0 0 1-.71-.272l-2.869-2.869a.948.948 0 0 1-.015-1.306l.007-.008.085-.084-8.306-8.306a1.539 1.539 0 0 1 0-2.185L10.859.455a1.539 1.539 0 0 1 2.185 0v.001zm7.263 9.357L18.37 7.876a.655.655 0 0 0-.938 0l-3.95 3.95a.664.664 0 0 0-.146.731.68.68 0 0 0 .146.217l1.93 1.93.673-.673-1.727-1.727L17.9 8.751l1.731 1.737.676-.676zm-5.601 5.597-1.935-1.935a.655.655 0 0 0-.938 0l-3.961 3.961a.653.653 0 0 0 0 .938l1.933 1.933.68-.68-1.732-1.726 3.553-3.542 1.726 1.725.675-.674zM7.528 6.834l3.95 3.95a.644.644 0 0 0 .938-.011l3.95-3.95a.643.643 0 0 0 .199-.463h.011a.674.674 0 0 0-.199-.474l-3.95-3.95a.667.667 0 0 0-.948 0l-3.95 3.961a.653.653 0 0 0 0 .938zm-5.595 5.594 3.95 3.95a.653.653 0 0 0 .938 0l3.95-3.95a.643.643 0 0 0 .199-.474h.011a.655.655 0 0 0-.199-.474l-3.95-3.95a.655.655 0 0 0-.938 0l-3.961 3.961a.653.653 0 0 0 0 .938zm7.65 9.66 2.606 2.607 10.633-14.389-.723-.723L9.583 22.087z"/><path d="m13.045.456 8.306 8.316.088-.088a.948.948 0 0 1 1.306-.015l.963.963c.337.337.348.85.092 1.207l-.004.008-.158.212 6.797 6.797a1.539 1.539 0 0 1 0 2.185L20.029 30.447a1.539 1.539 0 0 1-2.185 0l-4.907-4.907a.918.918 0 0 1-.675.35.93.93 0 0 1-.71-.272l-2.869-2.869a.948.948 0 0 1-.015-1.306l.007-.008.085-.084-8.306-8.306a1.539 1.539 0 0 1 0-2.185L10.859.455a1.539 1.539 0 0 1 2.185 0v.001zm7.263 9.357L18.37 7.876a.655.655 0 0 0-.938 0l-3.95 3.95a.664.664 0 0 0-.146.731.68.68 0 0 0 .146.217l1.93 1.93.673-.673-1.727-1.727L17.9 8.751l1.731 1.737.676-.676zm-5.601 5.597-1.935-1.935a.655.655 0 0 0-.938 0l-3.961 3.961a.653.653 0 0 0 0 .938l1.933 1.933.68-.68-1.732-1.726 3.553-3.542 1.726 1.725.675-.674zM7.528 6.834l3.95 3.95a.644.644 0 0 0 .938-.011l3.95-3.95a.643.643 0 0 0 .199-.463h.011a.674.674 0 0 0-.199-.474l-3.95-3.95a.667.667 0 0 0-.948 0l-3.95 3.961a.653.653 0 0 0 0 .938zm-5.595 5.594 3.95 3.95a.653.653 0 0 0 .938 0l3.95-3.95a.643.643 0 0 0 .199-.474h.011a.655.655 0 0 0-.199-.474l-3.95-3.95a.655.655 0 0 0-.938 0l-3.961 3.961a.653.653 0 0 0 0 .938zm7.65 9.66 2.606 2.607 10.633-14.389-.723-.723L9.583 22.087z"/></symbol><symbol id="icon-burger-hover" viewBox="0 0 45 32"><path stroke-linecap="round" stroke-linejoin="round" stroke-width="4" d="M3.2 16h38.4M3.2 3.2h38.4M3.2 28.8h38.4"/></symbol><symbol id="icon-chocolate" viewBox="0 0 32 32"><path d="M3.944 20.076 14.721 2.652l.64-.674 8.236 5.491.056 3.314 2.01 3.28-8.88 14.077-12.839-8.063z"/><path stroke-linecap="round" stroke-linejoin="round" stroke-width="2.667" d="M21.635 23.88 7.45 15.016m3.911-6.417 14.185 8.864M10.63 25.864l11.736-19.25m4.81 8.175c-3.04-1.899-4.234-3.384-2.278-6.592l-9.626-6.015-11.736 19.25 14.186 8.864 9.454-15.507z"/></symbol><symbol id="icon-close" viewBox="0 0 32 32"><path stroke-linecap="round" stroke-linejoin="round" stroke-width="4.8" d="M29.333 2.667 2.666 29.334m.001-26.667 26.667 26.667"/></symbol><symbol id="icon-coin" viewBox="0 0 32 32"><path d="M16 .762C7.619.762.762 7.619.762 16S7.619 31.238 16 31.238 31.238 24.381 31.238 16 24.381.762 16 .762zm0 27.429c-6.705 0-12.19-5.486-12.19-12.19S9.296 3.81 16 3.81c6.705 0 12.19 5.486 12.19 12.191s-5.486 12.19-12.191 12.19z"/><path d="M17.981 14.476h-3.962c-.762 0-1.371-.61-1.371-1.371s.61-1.371 1.371-1.371h5.638c.914 0 1.524-.61 1.524-1.524s-.61-1.524-1.524-1.524h-2.133V7.315c0-.914-.61-1.524-1.524-1.524s-1.524.61-1.524 1.524v1.371h-.457c-2.438 0-4.419 1.981-4.419 4.419s1.981 4.419 4.419 4.419h3.809c.762 0 1.371.61 1.371 1.371s-.61 1.371-1.371 1.371H12.19c-.914 0-1.524.61-1.524 1.524s.61 1.524 1.524 1.524h2.286v1.371c0 .914.61 1.524 1.524 1.524s1.524-.61 1.524-1.524v-1.371h.457c2.438 0 4.419-1.981 4.419-4.419s-1.981-4.419-4.419-4.419z"/></symbol><symbol id="icon-home" viewBox="0 0 86 32"><path d="M16.996 6.4h2.8V26h-2.8V6.4zM5.74 26h-2.8V6.4h2.8V26zm11.508-8.736H5.46v-2.436h11.788v2.436zm13.819 8.904c-1.493 0-2.819-.327-3.976-.98s-2.072-1.549-2.744-2.688c-.672-1.157-1.008-2.464-1.008-3.92 0-1.475.336-2.781 1.008-3.92s1.587-2.025 2.744-2.66c1.157-.653 2.483-.98 3.976-.98 1.475 0 2.791.327 3.948.98a6.843 6.843 0 0 1 2.744 2.66c.672 1.12 1.008 2.427 1.008 3.92 0 1.475-.336 2.781-1.008 3.92a7.03 7.03 0 0 1-2.744 2.688c-1.157.653-2.473.98-3.948.98zm0-2.352c.952 0 1.801-.215 2.548-.644a4.543 4.543 0 0 0 1.792-1.82c.429-.803.644-1.727.644-2.772 0-1.064-.215-1.979-.644-2.744a4.543 4.543 0 0 0-1.792-1.82c-.747-.429-1.596-.644-2.548-.644s-1.801.215-2.548.644a4.791 4.791 0 0 0-1.792 1.82c-.448.765-.672 1.68-.672 2.744 0 1.045.224 1.969.672 2.772.448.784 1.045 1.391 1.792 1.82s1.596.644 2.548.644zM60.488 11.02c1.195 0 2.249.233 3.164.7s1.624 1.176 2.128 2.128c.523.952.784 2.156.784 3.612V26h-2.688v-8.232c0-1.437-.336-2.52-1.008-3.248s-1.615-1.092-2.828-1.092c-.896 0-1.68.187-2.352.56s-1.195.924-1.568 1.652c-.355.728-.532 1.633-.532 2.716V26H52.9v-8.232c0-1.437-.336-2.52-1.008-3.248-.653-.728-1.596-1.092-2.828-1.092-.877 0-1.652.187-2.324.56s-1.195.924-1.568 1.652c-.373.728-.56 1.633-.56 2.716V26h-2.688V11.16H44.5v3.948l-.42-1.008c.467-.971 1.185-1.727 2.156-2.268s2.1-.812 3.388-.812c1.419 0 2.641.355 3.668 1.064 1.027.691 1.699 1.745 2.016 3.164l-1.092-.448c.448-1.139 1.232-2.053 2.352-2.744s2.427-1.036 3.92-1.036zm17.07 15.148c-1.587 0-2.987-.327-4.2-.98a7.178 7.178 0 0 1-2.8-2.688c-.653-1.139-.98-2.445-.98-3.92s.317-2.781.952-3.92A6.999 6.999 0 0 1 73.19 12c1.139-.653 2.417-.98 3.836-.98 1.437 0 2.707.317 3.808.952s1.96 1.531 2.576 2.688c.635 1.139.952 2.473.952 4.004 0 .112-.009.243-.028.392 0 .149-.009.289-.028.42H71.678v-1.932h11.228l-1.092.672c.019-.952-.177-1.801-.588-2.548s-.98-1.325-1.708-1.736c-.709-.429-1.54-.644-2.492-.644-.933 0-1.764.215-2.492.644a4.328 4.328 0 0 0-1.708 1.764c-.411.747-.616 1.605-.616 2.576v.448c0 .989.224 1.876.672 2.66.467.765 1.111 1.363 1.932 1.792s1.764.644 2.828.644c.877 0 1.671-.149 2.38-.448a5.22 5.22 0 0 0 1.904-1.344l1.484 1.736a6.483 6.483 0 0 1-2.52 1.792c-.989.411-2.1.616-3.332.616z"/></symbol><symbol id="icon-instagram" viewBox="0 0 32 32"><path stroke-linecap="round" stroke-linejoin="round" stroke-width="2.182" d="M22.667 2.667H9.334a6.667 6.667 0 0 0-6.667 6.667v13.333a6.667 6.667 0 0 0 6.667 6.667h13.333a6.667 6.667 0 0 0 6.667-6.667V9.334a6.667 6.667 0 0 0-6.667-6.667z"/><path stroke-linecap="round" stroke-linejoin="round" stroke-width="2.182" d="M21.333 15.16a5.338 5.338 0 0 1-6.123 6.049 5.334 5.334 0 0 1-3.916-7.663 5.333 5.333 0 0 1 8.536-1.374 5.328 5.328 0 0 1 1.504 2.989zM23.333 8.667h.015"/></symbol><symbol id="icon-scroll" viewBox="0 0 56 32"><path d="M30.605 21.134a3.675 3.675 0 0 1-2.603 1.085 3.67 3.67 0 0 1-2.603-1.085L8.606 4.304a3.675 3.675 0 0 0-2.603-1.085A3.67 3.67 0 0 0 3.4 9.474l16.83 16.83a11 11 0 0 0 15.546 0l16.83-16.83a3.669 3.669 0 0 0 .791-3.975A3.659 3.659 0 0 0 51.412 3.5a3.655 3.655 0 0 0-2.82 0 3.659 3.659 0 0 0-1.193.803l-16.793 16.83z"/></symbol><symbol id="icon-spoon" viewBox="0 0 34 32"><path d="M16.482 12.913a5.498 5.498 0 0 1-1.255-3.501C15.227 4.8 20.754.194 26.28.194a5.528 5.528 0 0 1 5.526 5.528c0 5.528-4.605 11.055-9.222 11.055a5.497 5.497 0 0 1-3.5-1.255L5.475 29.134a1.844 1.844 0 0 1-2.608-2.608l13.615-13.612z"/><path stroke-width="1.067" d="m16.859 13.29.343-.342-.308-.374a4.965 4.965 0 0 1-1.133-3.162c0-2.096 1.265-4.263 3.262-5.929C21.014 1.823 23.659.727 26.28.727a4.995 4.995 0 0 1 4.993 4.994c0 2.622-1.096 5.268-2.756 7.259-1.666 1.998-3.835 3.263-5.933 3.263a4.968 4.968 0 0 1-3.161-1.133l-.374-.308L5.098 28.756a1.312 1.312 0 0 1-1.853-1.854L16.86 13.29z"/></symbol><symbol id="icon-twitter" viewBox="0 0 36 32"><path stroke-linecap="round" stroke-linejoin="round" stroke-width="2.667" d="M34.074 2.667a16.15 16.15 0 0 1-4.652 2.267 6.635 6.635 0 0 0-10.5.628 6.636 6.636 0 0 0-1.145 3.817v1.481c-2.604.068-5.183-.51-7.51-1.681S5.94 5.687 4.443 3.556c0 0-5.926 13.926 7.407 19.852a17.242 17.242 0 0 1-10.37 2.963c13.333 7.407 29.63 0 29.63-17.037a6.683 6.683 0 0 0-.118-1.23 11.433 11.433 0 0 0 3.081-5.437z"/></symbol><symbol id="icon-flag" viewBox="0 0 40 32"><path fill="gold" d="M40.209.495H.307V30.19h39.902V.495z" style="fill:var(--color1, #ffd700)"/><path fill="#0057b7" d="M.307.495h39.902v14.847H.307V.495z" style="fill:var(--color2, #0057b7)"/></symbol></defs></svg>
</defs>
</svg>
